# File created by Blade
# Date/Time:  Wed Apr 08 14:47:20 2015
# Frame Rate: 120.000 fps
#------------------------------------------------------
:FULLY-SPECIFIED
:DEGREES
3235
root 5.675329 32.811473 -2.199716 14.659713 1.939965 -0.953711
Spine -16.014468 -5.702574 0.331415
Head 10.488936 -5.257835 1.712158
LeftShoulder -21.371570 46.341673 9.510544
LeftArm 57.080405 -36.574142 -86.169446
LeftForeArm 17.910125 -0.000000 38.763125
LeftHand 4.944259 0.000000 17.579372
LeftHandThumb1 -26.253704 0.000000 33.147579
RightShoulder -7.939972 -5.894701 -22.733733
RightArm 12.708952 6.226574 56.160191
RightForeArm -11.542096 -0.000000 16.623520
RightHand 8.774624 -0.000000 -8.684512
RightHandThumb1 -24.326973 -0.000000 -32.862282
LeftUpLeg -6.597531 -11.824572 2.596087
LeftLeg -8.045369 -0.000000 0.000000
LeftFoot -3.185019 16.576569 -15.616860
LeftToeBase 0.346450 -0.000000 -0.000000
RightUpLeg -6.337000 5.340212 0.646635
RightLeg -8.895436 -0.000000 0.000000
RightFoot -1.980102 -19.378897 5.027074
RightToeBase -1.538595 -0.000000 0.000000
3236
root 5.675829 32.820325 -2.232744 14.634217 1.863610 -1.030194
Spine -15.908954 -5.529523 0.328367
Head 10.439868 -5.356065 1.878027
LeftShoulder -21.147577 46.322931 9.263496
LeftArm 56.462316 -35.235539 -86.695838
LeftForeArm 17.777216 -0.000000 39.318202
LeftHand 4.625669 0.000000 16.952900
LeftHandThumb1 -26.253704 0.000000 33.147579
RightShoulder -7.979694 -6.265714 -22.269512
RightArm 12.904008 5.125934 57.129526
RightForeArm -11.316278 -0.000000 16.793799
RightHand 8.813091 -0.000000 -8.489094
RightHandThumb1 -24.326973 -0.000000 -32.862282
LeftUpLeg -6.644550 -11.711393 2.642962
LeftLeg -8.003646 -0.000000 0.000000
LeftFoot -3.144165 16.597252 -15.562975
LeftToeBase 0.350470 -0.000000 -0.000000
RightUpLeg -6.451023 5.491862 0.662231
RightLeg -8.741217 -0.000000 0.000000
RightFoot -2.016439 -19.330093 5.197452
RightToeBase -1.550974 -0.000000 0.000000
3237
root 5.675875 32.827722 -2.262681 14.546724 1.764077 -1.083362
Spine -15.763843 -5.368204 0.296040
Head 10.472459 -5.442815 2.010901
LeftShoulder -20.821589 46.295503 9.114707
LeftArm 55.700750 -33.906662 -87.088501
LeftForeArm 17.634141 -0.000000 39.693510
LeftHand 4.657036 -0.000000 16.160665
LeftHandThumb1 -26.253704 0.000000 33.147579
RightShoulder -7.955975 -6.613129 -21.872307
RightArm 13.080875 3.948714 58.162798
RightForeArm -11.006678 -0.000000 16.883676
RightHand 8.774060 -0.000000 -8.477438
RightHandThumb1 -24.326973 -0.000000 -32.862282
LeftUpLeg -6.600221 -11.576777 2.649489
LeftLeg -8.000134 -0.000000 0.000000
LeftFoot -3.102437 16.600070 -15.543788
LeftToeBase 0.446289 -0.000000 -0.000000
RightUpLeg -6.486304 5.655082 0.665933
RightLeg -8.620223 -0.000000 0.000000
RightFoot -2.028095 -19.330728 5.289040
RightToeBase -1.536864 -0.000000 0.000000
3238
root 5.678193 32.832058 -2.291864 14.421046 1.669292 -1.116608
Spine -15.565697 -5.270105 0.283488
Head 10.457460 -5.447586 2.077471
LeftShoulder -20.657487 46.435546 8.756270
LeftArm 55.209732 -32.599395 -87.484210
LeftForeArm 17.481173 0.000000 39.858439
LeftHand 4.484045 -0.000000 15.331965
LeftHandThumb1 -26.253704 0.000000 33.147579
RightShoulder -7.860449 -6.786584 -21.601285
RightArm 13.131457 2.887283 59.351515
RightForeArm -10.623943 -0.000000 16.927953
RightHand 8.868471 -0.000000 -7.894198
RightHandThumb1 -24.326973 -0.000000 -32.862282
LeftUpLeg -6.492458 -11.543008 2.645528
LeftLeg -8.042918 -0.000000 0.000000
LeftFoot -3.065748 16.681745 -15.544471
LeftToeBase 0.501957 -0.000000 -0.000000
RightUpLeg -6.478086 5.765670 0.673207
RightLeg -8.507196 -0.000000 0.000000
RightFoot -2.047758 -19.337835 5.337565
RightToeBase -1.514731 -0.000000 0.000000
3239
root 5.678633 32.833627 -2.318172 14.257775 1.581551 -1.126802
Spine -15.323026 -5.147964 0.193942
Head 10.430116 -5.507261 2.245015
LeftShoulder -20.405159 46.544111 8.566495
LeftArm 54.812590 -31.237406 -87.926680
LeftForeArm 17.501338 0.000000 39.713687
LeftHand 4.470726 -0.000000 15.041731
LeftHandThumb1 -26.253704 0.000000 33.147579
RightShoulder -7.778984 -6.977457 -21.275391
RightArm 13.146579 1.911001 60.513140
RightForeArm -10.259470 0.000000 16.916561
RightHand 9.253209 -0.000000 -7.309655
RightHandThumb1 -24.326973 -0.000000 -32.862282
LeftUpLeg -6.376090 -11.326026 2.573120
LeftLeg -7.997920 -0.000000 0.000000
LeftFoot -3.075002 16.585525 -15.519091
LeftToeBase 0.564053 -0.000000 -0.000000
RightUpLeg -6.416428 5.820789 0.691737
RightLeg -8.411718 -0.000000 0.000000
RightFoot -2.041626 -19.386768 5.218181
RightToeBase -1.510501 -0.000000 0.000000
3240
root 5.680630 32.832148 -2.337643 14.018531 1.468390 -1.093780
Spine -15.005627 -5.067286 0.067507
Head 10.386030 -5.500864 2.373956
LeftShoulder -20.248578 46.684577 8.286347
LeftArm 54.319228 -29.821660 -88.084125
LeftForeArm 17.262898 0.000000 39.531290
LeftHand 4.300114 -0.000000 14.249224
LeftHandThumb1 -26.253704 0.000000 33.147579
RightShoulder -7.621714 -7.173781 -20.989317
RightArm 13.178464 1.358836 61.844810
RightForeArm -10.015846 -0.000000 16.935012
RightHand 9.151095 -0.000000 -6.128275
RightHandThumb1 -24.326973 -0.000000 -32.862282
LeftUpLeg -6.150366 -11.098322 2.433594
LeftLeg -7.986901 -0.000000 0.000000
LeftFoot -3.093966 16.495671 -15.487647
LeftToeBase 0.739331 -0.000000 -0.000000
RightUpLeg -6.261074 5.839714 0.686248
RightLeg -8.322804 -0.000000 0.000000
RightFoot -2.088014 -19.420979 5.085684
RightToeBase -1.460269 -0.000000 0.000000
3241
root 5.681297 32.828540 -2.365302 13.866552 1.492145 -1.092801
Spine -14.769618 -5.148745 0.050375
Head 10.299020 -5.449011 2.456394
LeftShoulder -20.227588 46.838502 7.905948
LeftArm 53.957006 -28.352728 -88.227382
LeftForeArm 17.159241 -0.000000 39.183095
LeftHand 3.950871 -0.000000 13.322098
LeftHandThumb1 -26.253704 0.000000 33.147579
RightShoulder -7.419616 -7.365286 -20.677455
RightArm 13.198706 0.505292 62.962749
RightForeArm -9.325868 -0.000000 17.028800
RightHand 8.992334 0.000000 -5.431549
RightHandThumb1 -24.326973 -0.000000 -32.862282
LeftUpLeg -6.062868 -11.048161 2.396241
LeftLeg -7.941234 -0.000000 0.000000
LeftFoot -3.167039 16.445551 -15.500041
LeftToeBase 0.789642 -0.000000 -0.000000
RightUpLeg -6.182228 5.789151 0.725793
RightLeg -8.270606 -0.000000 0.000000
RightFoot -2.114709 -19.493960 4.983157
RightToeBase -1.417568 -0.000000 0.000000
3242
root 5.684126 32.822454 -2.388520 13.685494 1.509215 -1.070578
Spine -14.504285 -5.205831 0.005157
Head 10.185459 -5.412363 2.534185
LeftShoulder -20.024720 46.790375 7.671488
LeftArm 52.998026 -26.775980 -87.754584
LeftForeArm 16.580688 -0.000000 39.068445
LeftHand 3.344064 -0.000000 12.492997
LeftHandThumb1 -26.253704 0.000000 33.147579
RightShoulder -7.261799 -7.654000 -20.360299
RightArm 13.344200 -0.201701 64.127561
RightForeArm -8.830840 -0.000000 16.996434
RightHand 9.006912 0.000000 -4.876720
RightHandThumb1 -24.326973 -0.000000 -32.862282
LeftUpLeg -5.936869 -10.980359 2.320107
LeftLeg -7.887468 -0.000000 0.000000
LeftFoot -3.263551 16.388582 -15.475180
LeftToeBase 0.901886 -0.000000 -0.000000
RightUpLeg -6.070324 5.670756 0.760044
RightLeg -8.205514 -0.000000 0.000000
RightFoot -2.171874 -19.534342 4.827932
RightToeBase -1.403407 -0.000000 0.000000
3243
root 5.684388 32.815281 -2.412998 13.503855 1.505305 -1.050945
Spine -14.231429 -5.258550 -0.055663
Head 10.046248 -5.378752 2.644325
LeftShoulder -19.777107 46.642572 7.537635
LeftArm 52.266569 -25.380475 -87.751641
LeftForeArm 16.280757 0.000000 38.703583
LeftHand 3.062509 0.000000 11.277918
LeftHandThumb1 -26.253704 0.000000 33.147579
RightShoulder -7.101476 -7.881741 -20.001663
RightArm 13.479962 -0.871000 65.263303
RightForeArm -8.302126 -0.000000 16.988385
RightHand 8.695204 0.000000 -4.402512
RightHandThumb1 -24.326973 -0.000000 -32.862282
LeftUpLeg -5.810946 -10.920281 2.251333
LeftLeg -7.833793 -0.000000 0.000000
LeftFoot -3.384685 16.351729 -15.491495
LeftToeBase 1.020844 -0.000000 -0.000000
RightUpLeg -5.929523 5.670978 0.775660
RightLeg -8.215041 -0.000000 0.000000
RightFoot -2.185196 -19.650762 4.681977
RightToeBase -1.389833 -0.000000 0.000000
3244
root 5.687089 32.806577 -2.437221 13.323765 1.542539 -1.018298
Spine -13.963487 -5.365299 -0.100885
Head 9.895451 -5.316719 2.714571
LeftShoulder -19.625571 46.577583 7.285530
LeftArm 51.828154 -24.013920 -87.908979
LeftForeArm 16.547034 -0.000000 38.092910
LeftHand 2.922896 -0.000000 10.317140
LeftHandThumb1 -26.253704 0.000000 33.147579
RightShoulder -6.954524 -8.120293 -19.668270
RightArm 13.669818 -1.485714 66.442963
RightForeArm -7.760356 0.000000 16.929217
RightHand 8.401784 -0.000000 -3.991555
RightHandThumb1 -24.326973 -0.000000 -32.862282
LeftUpLeg -5.705146 -10.895847 2.177893
LeftLeg -7.752642 -0.000000 0.000000
LeftFoot -3.489700 16.260933 -15.594368
LeftToeBase 0.923343 -0.000000 -0.000000
RightUpLeg -5.795658 5.562816 0.796102
RightLeg -8.197573 -0.000000 0.000000
RightFoot -2.236272 -19.720282 4.506170
RightToeBase -1.338428 -0.000000 0.000000
